<?xml version="1.0" standalone="no"?>
<!DOCTYPE svg PUBLIC "-//W3C//DTD SVG 20010904//EN"
 "http://www.w3.org/TR/2001/REC-SVG-20010904/DTD/svg10.dtd">
<svg version="1.0" xmlns="http://www.w3.org/2000/svg"
 width="1080.000000pt" height="1080.000000pt" viewBox="0 0 1080.000000 1080.000000"
 preserveAspectRatio="xMidYMid meet">

<g transform="translate(0.000000,1080.000000) scale(0.100000,-0.100000)"
fill="#000000" stroke="none">
<path d="M0 5400 l0 -5400 2974 0 2974 0 -28 30 c-15 17 -34 30 -42 30 -8 0
-27 14 -43 30 -22 23 -38 30 -66 30 -42 0 -97 38 -201 141 -39 38 -68 59 -83
59 -14 0 -26 7 -30 19 -6 19 -36 29 -101 34 -34 3 -64 22 -64 41 0 6 16 22 35
35 19 13 35 32 35 42 0 23 18 25 26 4 10 -24 31 -17 44 15 15 37 30 30 30 -16
0 -27 4 -34 20 -34 16 0 20 -7 20 -34 0 -42 15 -54 32 -26 7 11 23 20 35 20
13 0 32 9 43 20 27 27 42 25 76 -10 16 -16 36 -30 46 -30 9 0 34 -15 57 -33
81 -64 96 -74 124 -81 23 -5 29 -3 37 19 10 26 24 32 35 15 16 -26 82 -48 124
-43 41 6 43 5 32 -14 -10 -19 -6 -22 37 -33 26 -6 51 -15 57 -19 5 -5 34 -14
63 -21 28 -6 52 -16 52 -21 0 -5 12 -9 28 -9 15 0 38 -7 51 -16 13 -9 40 -17
62 -18 21 -1 46 -9 56 -18 10 -9 34 -19 54 -23 29 -5 39 -14 53 -46 l17 -39
2065 0 2064 0 0 5400 0 5400 -5400 0 -5400 0 0 -5400z m6283 2787 c5 -13 -13
-103 -28 -139 -15 -37 -71 -33 -81 7 -4 16 0 30 10 40 9 9 16 25 16 36 0 10 7
19 15 19 8 0 17 11 21 25 7 27 38 35 47 12z m-297 -64 c-11 -13 -27 -23 -33
-23 -7 0 -13 -6 -13 -12 -1 -7 -17 -23 -36 -35 -31 -20 -49 -23 -139 -24 -143
-1 -149 4 -82 72 l42 44 141 0 141 0 -21 -22z m134 -123 c0 -5 -4 -10 -10 -10
-5 0 -10 5 -10 10 0 6 5 10 10 10 6 0 10 -4 10 -10z m-152 -32 c-3 -7 -13 -15
-24 -16 -10 -2 -24 -10 -30 -18 -18 -22 -132 -29 -206 -13 l-63 14 111 5 c62
3 118 11 125 17 13 10 41 18 77 22 8 0 12 -5 10 -11z m-573 -28 c8 0 29 -9 47
-20 18 -11 49 -20 68 -20 23 0 39 -6 47 -19 9 -14 22 -18 65 -16 29 1 103 3
165 4 84 1 115 5 127 16 8 8 26 15 40 15 14 0 34 8 45 19 10 10 32 26 48 36
29 17 31 17 57 0 16 -11 25 -24 22 -34 -3 -9 -7 -35 -11 -58 -6 -39 -8 -41
-26 -30 -17 10 -23 9 -37 -10 -15 -20 -22 -21 -65 -13 -26 5 -56 14 -67 20
-14 7 -26 8 -39 0 -11 -5 -30 -10 -43 -10 -13 0 -34 -7 -46 -16 -15 -10 -34
-14 -55 -10 -78 13 -103 19 -113 27 -6 5 -24 0 -42 -11 -18 -11 -39 -20 -46
-20 -8 0 -28 -11 -44 -25 -27 -23 -36 -25 -103 -21 -41 3 -91 -1 -113 -7 -36
-10 -40 -9 -57 14 -10 13 -27 36 -38 50 -18 23 -18 28 -6 33 8 3 15 13 15 22
0 12 6 15 21 11 24 -6 58 26 59 55 0 21 30 31 64 22 20 -5 28 -2 33 12 7 18 8
18 11 2 2 -10 10 -18 17 -18z m-387 -37 c2 -9 -7 -13 -27 -13 -31 0 -42 14
-18 23 19 8 40 3 45 -10z m1154 -145 c16 3 19 -1 14 -20 -3 -13 -3 -17 0 -10
3 6 18 12 34 12 23 0 33 -8 54 -46 14 -26 26 -55 26 -66 0 -19 -1 -19 -26 1
-15 12 -37 21 -50 21 -13 0 -24 3 -24 8 0 4 -14 22 -30 41 -17 18 -30 40 -30
47 0 8 -7 14 -16 14 -8 0 -12 5 -9 10 5 8 12 7 22 -2 9 -7 25 -12 35 -10z
m-770 -295 c10 -9 18 -27 18 -39 0 -31 39 -111 68 -140 22 -23 26 -34 22 -67
-1 -10 3 -24 8 -30 5 -7 15 -29 21 -49 16 -49 34 -62 84 -60 35 1 46 -3 64
-27 29 -37 37 -72 21 -93 -12 -17 -17 -17 -89 1 -75 18 -264 22 -314 7 -12 -4
-35 2 -58 17 -42 25 -42 25 -169 -8 -26 -7 -50 -10 -53 -7 -3 3 -5 23 -5 44 0
33 5 42 42 68 26 19 48 28 57 24 34 -15 62 -9 76 16 29 53 55 121 55 143 0 13
11 38 25 57 14 19 25 38 25 42 0 21 42 98 58 107 23 14 23 14 44 -6z m-333
-192 c8 -5 11 -16 8 -25 -9 -22 20 -33 44 -18 42 27 39 8 -9 -44 -21 -24 -66
-56 -105 -74 -45 -22 -84 -51 -113 -84 -59 -65 -102 -96 -133 -96 -14 0 -43
-12 -65 -27 -33 -24 -48 -28 -98 -26 -32 1 -75 10 -94 19 -21 10 -47 14 -67
11 -48 -8 -82 21 -79 66 1 20 -2 38 -8 42 -5 3 -10 19 -10 36 0 16 -5 29 -12
29 -23 1 -46 44 -41 74 5 23 17 33 70 57 36 16 78 29 94 29 15 0 50 7 75 16
44 15 52 15 108 -2 34 -10 67 -22 73 -27 17 -12 149 7 303 43 19 4 37 8 40 9
3 0 11 -3 19 -8z m735 -81 c114 -25 212 -25 302 0 41 11 101 19 140 19 l68 -1
61 -61 c89 -92 100 -118 86 -212 -13 -87 -13 -171 -1 -200 5 -13 3 -26 -7 -36
-8 -10 -15 -43 -16 -82 -2 -37 -6 -69 -9 -73 -10 -10 -21 43 -15 74 3 14 -1
39 -9 55 -10 18 -13 40 -8 63 6 35 6 36 -17 29 -13 -4 -31 -14 -41 -22 -11
-10 -22 -12 -35 -5 -10 5 -33 16 -52 26 -24 12 -37 14 -45 6 -14 -14 -58 -12
-80 5 -11 8 -26 15 -34 15 -13 0 -76 44 -113 79 -176 168 -263 237 -317 253
-47 14 -56 21 -66 55 -7 20 -3 22 46 26 29 2 58 4 63 5 6 1 50 -7 99 -18z
m-1735 -563 c10 -24 6 -37 -11 -37 -4 0 -8 9 -8 20 0 11 -7 23 -15 26 -9 4
-15 19 -15 36 l0 31 20 -25 c11 -14 24 -37 29 -51z m2258 -49 c-3 -7 -5 -2 -5
12 0 14 2 19 5 13 2 -7 2 -19 0 -25z m-1618 -38 l23 -47 -23 -42 c-29 -50 -51
-52 -107 -9 -36 28 -42 38 -42 70 0 20 -4 40 -10 43 -5 3 -10 12 -10 20 0 10
18 13 73 13 l72 0 24 -48z m449 8 c8 -8 15 -8 27 2 19 16 90 8 113 -13 15 -13
20 -14 36 -1 26 18 89 18 126 -1 18 -9 31 -11 35 -5 10 17 38 11 70 -15 20
-17 25 -25 14 -25 -9 0 -24 -9 -34 -20 -23 -25 -36 -25 -66 1 l-24 20 -16 -20
c-23 -28 -76 -28 -105 0 -19 17 -26 19 -44 9 -34 -18 -87 -4 -104 27 l-14 27
-13 -22 c-18 -29 -57 -29 -68 1 -5 13 -5 27 1 35 13 15 50 16 66 0z m937 -68
c13 -57 72 -73 143 -38 16 9 25 9 34 0 8 -8 4 -13 -16 -18 -16 -4 -26 -13 -26
-25 0 -24 -37 -26 -43 -1 -4 13 -5 12 -6 -5 0 -12 -5 -25 -11 -28 -5 -3 -10
-15 -10 -25 0 -13 -5 -17 -15 -14 -8 4 -15 12 -15 20 0 25 -19 15 -26 -13 -10
-49 -13 -53 -34 -53 -37 0 -80 40 -80 74 1 48 16 103 34 121 9 9 16 21 16 26
0 5 11 9 24 9 19 0 26 -7 31 -30z m95 21 c0 -12 -39 -21 -45 -11 -3 5 3 11 12
13 29 8 33 7 33 -2z m401 -68 c-12 -8 -21 -21 -21 -29 0 -8 -7 -14 -15 -14
-24 0 -17 30 15 67 17 18 31 39 32 46 0 7 3 -3 5 -22 3 -25 -1 -37 -16 -48z
m-1681 -12 c12 -23 -6 -74 -24 -68 -20 7 -31 54 -16 71 17 21 27 20 40 -3z
m559 -10 c63 -6 116 -13 119 -15 2 -3 -16 -10 -39 -18 -42 -12 -158 -14 -264
-4 -27 2 -57 5 -66 5 -8 1 -31 13 -50 27 l-34 25 110 -4 c61 -3 161 -10 224
-16z m351 -85 c0 -3 -4 -8 -10 -11 -5 -3 -10 -1 -10 4 0 6 5 11 10 11 6 0 10
-2 10 -4z m-595 -226 c50 -6 98 -12 107 -14 9 -2 25 2 35 9 15 11 23 11 50 0
17 -7 40 -12 50 -10 68 14 103 12 124 -6 27 -23 66 -25 90 -3 15 13 21 14 52
1 43 -18 45 -23 39 -70 -3 -28 -8 -37 -19 -33 -8 3 -37 -4 -65 -16 -28 -12
-65 -21 -82 -21 -143 5 -218 11 -258 22 -44 12 -66 12 -143 -4 -22 -5 -45 1
-82 20 -49 24 -54 25 -82 10 -64 -32 -109 -8 -95 52 10 40 23 53 54 53 15 0
41 7 56 15 16 9 40 13 54 10 14 -3 66 -10 115 -15z m1114 -455 c1 -27 8 -63
17 -80 8 -16 18 -49 21 -73 8 -56 31 -101 74 -143 33 -32 34 -35 34 -114 0
-91 -12 -124 -77 -209 -21 -27 -38 -53 -38 -57 0 -5 -6 -9 -14 -9 -8 0 -16 16
-20 40 -3 22 -10 40 -15 40 -5 0 -23 -11 -39 -25 -17 -14 -33 -25 -38 -25 -4
0 -32 -25 -61 -55 -53 -54 -93 -71 -93 -39 0 11 -5 14 -16 10 -9 -3 -38 -6
-65 -6 -40 0 -47 -3 -42 -16 5 -13 15 -15 50 -10 48 6 57 -8 24 -38 -25 -22
-53 -17 -66 11 -14 33 -38 33 -70 2 -35 -36 -55 -37 -55 -4 0 26 -25 36 -32
13 -3 -7 -12 -9 -22 -5 -14 6 -16 13 -11 39 8 35 82 128 102 128 7 0 28 16 47
35 20 19 40 35 45 35 6 0 15 9 21 21 11 20 12 20 31 3 17 -15 24 -16 39 -6 26
16 27 16 33 -9 3 -12 10 -18 16 -14 18 11 12 32 -14 49 -29 19 -32 41 -7 55
24 13 65 17 80 8 7 -5 12 -4 12 2 0 6 -5 11 -11 11 -19 0 -5 45 16 48 30 6 41
20 27 34 -17 17 -15 38 8 83 29 56 26 80 -11 95 -26 11 -28 15 -14 23 9 5 25
7 35 4 14 -4 19 5 28 47 6 28 14 76 17 106 3 30 14 77 23 104 l17 50 7 -55 c3
-30 6 -76 7 -104z m-2009 -342 c-4 -21 -11 -47 -15 -58 -4 -11 -9 -26 -11 -34
-4 -11 -7 -12 -16 -3 -18 18 -28 14 -28 -9 0 -11 -5 -29 -10 -40 -10 -17 -13
-18 -39 -5 -15 8 -44 32 -64 52 -33 35 -35 40 -23 59 8 12 26 20 42 21 49 2
53 3 71 23 10 11 36 21 58 24 22 2 41 4 41 5 1 1 -2 -15 -6 -35z m-44 -256 c4
-15 11 -30 15 -33 12 -7 11 -24 -1 -24 -5 0 -10 6 -10 14 0 7 -9 16 -20 19
-11 3 -20 13 -20 23 0 9 -7 25 -16 35 -10 11 -14 25 -10 36 6 15 10 13 32 -12
13 -17 27 -42 30 -58z m-941 -87 c-3 -5 -12 -10 -20 -10 -8 0 -17 5 -20 10 -4
6 5 10 20 10 15 0 24 -4 20 -10z m1471 -5 c-19 -14 -36 -12 -36 6 0 5 12 9 28
9 26 -1 26 -1 8 -15z m1510 -32 c-10 -10 -19 5 -10 18 6 11 8 11 12 0 2 -7 1
-15 -2 -18z m-3095 10 c28 -5 30 -7 14 -14 -27 -10 -85 -11 -85 -1 0 22 18 26
71 15z m-101 -40 c-1 -23 -18 -30 -54 -24 -61 10 -58 31 3 31 28 0 51 -3 51
-7z m-152 -32 c10 -6 6 -10 -14 -14 -36 -6 -62 2 -42 14 17 11 39 11 56 0z
m4174 -33 c18 -28 28 -77 17 -83 -4 -3 -10 8 -14 24 -3 16 -13 32 -21 35 -15
6 -20 46 -5 46 5 0 15 -10 23 -22z m-4292 2 c12 -7 11 -10 -5 -16 -11 -4 -35
-13 -54 -20 -39 -16 -95 -19 -86 -4 3 6 14 10 24 10 10 0 24 6 31 14 10 13 30
20 65 24 6 1 17 -2 25 -8z m2210 -10 c22 -11 48 -20 59 -20 10 0 21 -6 24 -14
15 -38 382 -59 424 -24 9 7 22 6 46 -5 18 -9 51 -19 73 -23 31 -5 43 -12 53
-35 14 -33 37 -37 82 -13 17 8 47 14 67 12 29 -2 38 -8 40 -25 2 -17 -3 -23
-27 -28 -17 -4 -31 -13 -31 -21 0 -8 -10 -14 -24 -14 -13 0 -35 -9 -49 -20
-14 -11 -39 -20 -55 -20 -16 0 -35 -6 -41 -14 -6 -8 -33 -17 -59 -21 -26 -3
-69 -13 -96 -21 -65 -18 -269 -19 -322 -1 -22 8 -68 17 -103 21 -36 3 -72 13
-81 21 -9 8 -30 15 -47 15 -17 0 -36 6 -42 14 -7 8 -26 18 -42 21 -16 4 -32
13 -36 20 -5 7 -19 15 -33 17 -27 3 -42 38 -17 38 24 0 38 26 42 74 5 57 11
68 36 61 11 -4 25 -2 32 3 7 6 28 12 47 15 19 2 36 5 38 5 1 1 20 -7 42 -18z
m870 -32 c0 -4 -9 -8 -21 -8 -11 0 -18 4 -15 8 3 5 12 9 21 9 8 0 15 -4 15 -9z
m-3265 -38 c-3 -5 -10 -10 -16 -10 -5 0 -9 5 -9 10 0 6 7 10 16 10 8 0 12 -4
9 -10z m-71 -29 c3 -5 -1 -11 -9 -15 -9 -3 -15 0 -15 9 0 16 16 20 24 6z
m4876 -1 c8 -5 12 -12 8 -15 -9 -9 -59 6 -52 16 7 12 25 11 44 -1z m-1500 -30
c0 -5 -5 -10 -11 -10 -5 0 -7 5 -4 10 3 6 8 10 11 10 2 0 4 -4 4 -10z m1586
-15 c4 -9 19 -15 38 -15 18 0 36 -4 42 -9 15 -16 104 -61 120 -61 8 0 17 -6
20 -14 3 -8 18 -16 35 -20 17 -3 29 -12 29 -21 0 -10 10 -15 30 -15 21 0 30
-5 30 -16 0 -12 -6 -15 -26 -10 -38 10 -174 78 -174 88 0 4 -6 8 -14 8 -8 0
-59 22 -113 50 -93 47 -96 50 -60 50 24 0 40 -5 43 -15z m407 -211 c4 -8 14
-14 22 -14 8 0 19 -9 25 -20 6 -11 17 -20 25 -20 8 0 15 -5 15 -11 0 -19 -49
0 -78 29 -15 16 -35 31 -45 35 -9 3 -17 11 -17 17 0 15 43 2 53 -16z m153
-106 c25 -24 30 -38 15 -38 -11 0 -61 44 -61 54 0 13 23 5 46 -16z m64 -63 c0
-8 -4 -15 -10 -15 -5 0 -10 7 -10 15 0 8 5 15 10 15 6 0 10 -7 10 -15z m30
-36 c0 -5 -4 -9 -10 -9 -5 0 -10 7 -10 16 0 8 5 12 10 9 6 -3 10 -10 10 -16z
m38 -38 c3 -8 -1 -12 -9 -9 -7 2 -15 10 -17 17 -3 8 1 12 9 9 7 -2 15 -10 17
-17z m32 -37 c0 -14 -3 -14 -15 -4 -8 7 -15 14 -15 16 0 2 7 4 15 4 8 0 15 -7
15 -16z m38 -32 c2 -7 -3 -12 -12 -12 -9 0 -16 7 -16 16 0 17 22 14 28 -4z
m32 -32 c0 -5 -4 -10 -9 -10 -6 0 -13 5 -16 10 -3 6 1 10 9 10 9 0 16 -4 16
-10z m46 -49 c20 -16 22 -21 10 -31 -27 -21 -73 19 -49 43 9 10 12 9 39 -12z
m-6549 -543 c-3 -7 -5 -2 -5 12 0 14 2 19 5 13 2 -7 2 -19 0 -25z m5777 -1248
c23 -9 26 -15 26 -62 -1 -40 -6 -60 -23 -80 -30 -36 -112 -82 -174 -98 -123
-32 -156 63 -41 120 26 13 48 27 48 31 0 17 84 88 108 92 15 2 28 5 29 6 1 0
13 -3 27 -9z m350 -141 c13 -6 27 -21 30 -33 17 -64 -4 -107 -70 -141 -22 -10
-46 -24 -54 -31 -25 -19 -111 -44 -152 -44 -32 0 -40 4 -48 25 -5 14 -11 25
-14 25 -2 0 -11 3 -20 6 -12 4 -16 0 -16 -16 0 -14 8 -24 20 -27 25 -7 20 -32
-15 -79 -29 -39 -261 -156 -292 -148 -13 4 -28 -2 -39 -14 -26 -27 -72 -39
-116 -32 -47 8 -51 -10 -12 -51 32 -33 26 -59 -13 -60 -43 -1 -58 -11 -59 -41
0 -16 -1 -48 -2 -72 l-2 -43 -59 -10 c-72 -11 -101 -3 -101 31 0 13 3 26 8 28
14 6 51 66 58 94 3 16 13 34 21 41 11 8 13 20 9 38 -4 16 -2 33 6 42 7 8 17
25 23 37 14 28 49 32 72 7 l19 -21 26 28 c37 40 46 61 49 122 3 54 3 55 -24
52 -25 -3 -26 -2 -20 30 8 39 57 123 91 156 l24 23 29 -27 c19 -18 29 -38 29
-56 0 -22 4 -28 23 -28 12 0 31 7 41 15 11 8 27 15 37 15 9 0 22 7 29 15 13
16 62 19 95 6 14 -6 26 -2 41 13 38 38 68 56 91 56 13 0 45 15 72 34 61 43
136 57 185 35z m-4244 -180 c127 -9 203 -24 252 -50 20 -10 43 -19 51 -19 8 0
17 -7 21 -15 3 -8 14 -15 23 -15 10 0 27 -6 38 -14 11 -7 31 -17 45 -21 13 -4
37 -17 52 -28 24 -18 31 -19 75 -8 26 7 53 17 60 22 6 6 41 15 77 20 125 17
287 -23 300 -75 3 -12 15 -33 26 -46 30 -35 28 -133 -5 -199 -24 -46 -113
-155 -143 -174 -7 -5 -11 -16 -8 -25 3 -9 -2 -26 -10 -37 -15 -20 -15 -20 -30
0 -22 29 -34 4 -34 -73 0 -57 -2 -63 -25 -74 -37 -17 -63 11 -67 71 l-3 46
-40 2 c-96 6 -233 44 -277 76 -32 23 -49 16 -26 -10 22 -26 37 -76 31 -105 -3
-16 5 -44 21 -74 14 -27 26 -64 26 -82 0 -18 7 -49 15 -69 8 -19 15 -48 15
-63 0 -25 -4 -29 -37 -33 -181 -23 -443 11 -483 62 -13 16 -88 61 -102 61 -10
0 -21 14 -28 35 -12 37 -19 42 -36 25 -6 -6 -21 -6 -41 2 -28 10 -32 17 -35
53 -3 39 -4 40 -44 43 -23 2 -49 11 -58 20 -8 9 -31 33 -49 53 -44 46 -53 100
-31 180 14 51 15 66 4 99 -7 22 -10 50 -5 67 4 15 11 54 15 87 8 51 14 63 54
102 33 32 46 51 46 72 0 37 47 109 80 122 14 5 61 7 105 3 44 -3 127 -9 185
-14z m5460 -41 c0 -10 -4 -18 -10 -18 -5 0 -10 15 -10 33 0 24 3 28 10 17 5
-8 10 -23 10 -32z m-1097 -39 c40 -49 11 -111 -70 -148 -26 -12 -69 -35 -94
-50 -62 -39 -97 -45 -142 -26 -20 8 -39 15 -42 15 -3 0 -5 -22 -5 -49 0 -49
-1 -50 -60 -95 -80 -61 -152 -96 -192 -94 -18 1 -40 0 -48 -3 -10 -3 -16 8
-20 38 -4 23 -14 51 -23 61 -20 22 -22 52 -4 52 8 0 23 8 35 18 11 9 34 28 51
42 17 14 41 33 53 43 11 9 27 17 33 17 7 0 18 7 25 15 7 8 22 15 34 15 12 0
31 7 42 15 10 8 29 15 42 15 12 0 25 6 28 14 3 8 19 18 36 21 16 4 77 32 136
62 116 59 150 63 185 22z m-3185 -176 c5 -13 20 -19 51 -20 29 -1 48 -8 54
-18 8 -15 10 -15 22 2 13 17 16 17 62 -6 82 -40 197 -78 221 -73 8 2 20 -2 28
-9 7 -6 25 -9 39 -6 21 3 29 -1 41 -24 12 -24 18 -28 34 -19 26 14 62 12 84
-5 11 -8 34 -15 51 -15 17 0 40 -6 51 -14 11 -8 38 -18 60 -22 21 -4 41 -10
44 -13 3 -4 29 -12 57 -19 41 -9 62 -21 92 -54 l40 -42 6 27 c8 32 42 36 81
10 14 -9 38 -16 54 -15 16 0 46 -8 66 -19 27 -13 59 -19 105 -19 38 0 83 -7
105 -16 28 -12 75 -16 177 -17 119 -2 140 -4 151 -19 17 -23 22 -23 29 3 5 19
10 20 64 15 32 -4 84 -6 115 -6 54 1 58 -1 64 -26 9 -35 -2 -140 -20 -189 -8
-22 -15 -61 -16 -86 0 -26 -9 -75 -20 -109 -11 -34 -20 -75 -20 -89 0 -15 -4
-31 -9 -36 -4 -6 -14 -39 -21 -75 -8 -36 -24 -85 -36 -110 -12 -25 -25 -62
-29 -83 -8 -42 -25 -50 -25 -12 0 24 -2 25 -75 25 -69 0 -75 -2 -75 -20 0 -12
12 -32 27 -46 23 -21 25 -27 13 -34 -8 -6 -21 -8 -28 -5 -8 3 -17 5 -22 5 -4
0 -11 17 -15 37 -4 20 -14 42 -23 49 -14 10 -12 13 14 27 18 10 23 16 13 17
-29 0 -96 33 -77 37 33 8 29 32 -8 48 -20 8 -38 24 -41 35 -7 27 -19 25 -27
-2 -4 -17 1 -28 17 -40 18 -14 19 -18 5 -18 -9 0 -18 6 -21 13 -3 9 -9 9 -27
-1 -19 -11 -25 -11 -41 4 -10 9 -27 14 -39 11 -11 -3 -20 -1 -20 4 0 5 -8 12
-17 16 -10 3 -33 17 -52 31 -30 22 -37 24 -66 13 -41 -14 -59 -7 -106 41 -42
43 -60 47 -80 17 -13 -19 -49 -19 -49 1 0 5 -9 29 -20 54 -18 42 -21 45 -39
34 -16 -10 -23 -9 -39 5 -17 16 -21 16 -32 2 -7 -8 -20 -15 -30 -15 -25 0 -78
29 -90 48 -8 15 -9 15 -10 1 0 -15 -38 -39 -60 -39 -6 0 -10 13 -10 29 0 26
-7 32 -75 64 -41 20 -78 43 -81 51 -4 12 -11 13 -24 6 -23 -13 -59 5 -95 48
-28 33 -65 42 -95 22 -13 -8 -11 -11 8 -16 12 -4 22 -10 22 -15 0 -4 15 -23
33 -41 45 -44 50 -62 26 -84 -11 -10 -18 -26 -16 -35 9 -32 -9 -42 -27 -15 -9
14 -34 34 -56 45 -40 19 -41 19 -53 0 -18 -28 -45 -25 -40 5 4 17 -1 27 -16
35 -12 7 -21 21 -21 31 0 24 -9 25 -36 6 -16 -13 -17 -18 -6 -36 31 -51 -34
-56 -75 -5 -25 32 -29 33 -45 18 -9 -8 -26 -13 -37 -10 -38 10 -52 -43 -15
-57 8 -3 14 -14 14 -25 0 -14 20 -34 61 -61 65 -43 105 -50 149 -25 41 24 69
19 76 -12 3 -16 8 -34 10 -42 2 -8 -3 -22 -12 -32 -15 -16 -14 -19 5 -31 26
-16 27 -49 2 -65 -21 -13 -36 -73 -21 -83 6 -4 0 -11 -14 -18 -21 -9 -28 -7
-54 18 -28 26 -29 29 -10 33 29 8 19 41 -14 47 -14 3 -36 17 -48 32 -12 16
-28 28 -35 28 -8 0 -19 8 -24 19 -6 10 -26 22 -45 25 -19 4 -59 27 -90 53 -55
44 -57 45 -76 28 -19 -17 -20 -17 -37 14 -10 17 -24 31 -31 31 -13 0 -71 40
-102 70 -9 9 -26 35 -38 58 -28 54 -23 99 22 195 41 89 70 118 163 168 12 6
27 25 32 41 9 24 14 28 32 23 15 -5 19 -4 15 4 -9 15 -18 308 -11 332 9 26 92
27 103 2z m3027 -139 c14 -15 25 -30 25 -34 0 -13 -57 -85 -112 -141 -65 -66
-102 -77 -167 -54 -41 14 -43 14 -48 -5 -5 -21 -19 -25 -47 -14 -20 8 -21 24
-1 24 9 0 39 22 67 50 28 27 60 52 72 56 12 4 50 37 86 75 36 38 73 69 83 69
10 0 29 -12 42 -26z m-590 -36 c-19 -11 -30 -5 -21 11 4 6 14 7 22 4 15 -5 14
-7 -1 -15z m-41 -55 c-3 -21 -11 -48 -17 -61 -8 -17 -8 -31 0 -52 6 -16 8 -31
5 -34 -14 -15 -90 -4 -124 17 l-37 23 62 57 c34 31 69 63 77 71 27 26 39 19
34 -21z m-1784 -603 c0 -5 -2 -10 -4 -10 -3 0 -8 5 -11 10 -3 6 -1 10 4 10 6
0 11 -4 11 -10z m-470 -35 c0 -7 -6 -18 -14 -24 -11 -10 -16 -8 -21 8 -3 12
-4 25 0 30 8 13 35 2 35 -14z m333 -217 c-7 -33 -13 -43 -28 -43 -14 0 -21 -8
-23 -27 -2 -16 -8 -28 -13 -28 -5 0 -9 -9 -9 -21 0 -16 -4 -19 -17 -14 -32 12
-37 10 -41 -12 -4 -28 -18 -29 -32 -3 -9 16 -8 22 5 26 12 5 14 15 9 40 -5 29
-2 39 20 59 28 26 60 32 71 15 14 -23 33 12 41 73 l7 62 9 -42 c5 -24 5 -62 1
-85z m-125 35 c-6 -7 -16 -13 -24 -13 -19 0 -27 19 -14 35 9 11 16 12 30 2 14
-8 16 -15 8 -24z m329 -165 c-3 -8 -6 -5 -6 6 -1 11 2 17 5 13 3 -3 4 -12 1
-19z"/>
<path d="M6376 5145 c-3 -8 -1 -15 4 -15 6 0 10 7 10 15 0 8 -2 15 -4 15 -2 0
-6 -7 -10 -15z"/>
<path d="M6335 5077 c-4 -10 -5 -21 -1 -24 10 -10 18 4 13 24 -4 17 -4 17 -12
0z"/>
<path d="M6100 5040 c0 -5 5 -10 11 -10 5 0 7 5 4 10 -3 6 -8 10 -11 10 -2 0
-4 -4 -4 -10z"/>
<path d="M6025 4980 c-7 -12 2 -30 16 -30 12 0 12 27 0 35 -5 3 -12 1 -16 -5z"/>
<path d="M5886 4933 c-12 -13 -6 -53 9 -53 9 0 15 9 15 24 0 26 -12 40 -24 29z"/>
<path d="M7605 1960 c3 -5 8 -10 11 -10 2 0 4 5 4 10 0 6 -5 10 -11 10 -5 0
-7 -4 -4 -10z"/>
<path d="M4109 1669 c-17 -17 -18 -23 -7 -36 11 -15 13 -13 16 10 2 15 10 27
18 27 8 0 14 5 14 10 0 16 -19 11 -41 -11z"/>
<path d="M4944 1634 c3 -9 6 -19 6 -22 0 -9 20 21 20 31 0 4 -7 7 -16 7 -11 0
-14 -5 -10 -16z"/>
<path d="M4830 1335 c-7 -8 -18 -15 -24 -15 -14 0 -66 -78 -66 -98 0 -9 7 -11
21 -7 23 8 39 -7 39 -37 0 -10 9 -27 20 -38 11 -11 20 -29 20 -40 0 -15 7 -20
25 -20 29 0 31 14 10 56 -8 18 -15 65 -17 118 -2 91 -7 106 -28 81z"/>
<path d="M5190 1220 c0 -5 5 -10 10 -10 6 0 10 5 10 10 0 6 -4 10 -10 10 -5 0
-10 -4 -10 -10z"/>
<path d="M5266 1161 c-18 -29 25 -74 48 -51 7 7 2 18 -16 36 -17 17 -28 22
-32 15z"/>
<path d="M5575 981 c-3 -5 -1 -12 5 -16 5 -3 10 1 10 9 0 18 -6 21 -15 7z"/>
<path d="M5602 944 c1 -9 9 -19 16 -22 9 -3 13 2 10 14 -1 9 -9 19 -16 22 -9
3 -13 -2 -10 -14z"/>
<path d="M6625 559 c-4 -5 5 -9 19 -9 14 0 26 4 26 8 0 11 -39 12 -45 1z"/>
<path d="M5600 393 c0 -5 14 -16 30 -25 26 -15 32 -15 36 -3 3 8 3 19 -1 25
-7 11 -65 14 -65 3z"/>
<path d="M5718 313 c7 -3 16 -2 19 1 4 3 -2 6 -13 5 -11 0 -14 -3 -6 -6z"/>
</g>
</svg>
